<?xml version="1.0" encoding="UTF-8"?><svg xmlns="http://www.w3.org/2000/svg" xmlns:xlink="http://www.w3.org/1999/xlink" version="1.1" id="Layer_1" x="0px" y="0px" viewBox="0 0 208 184" xml:space="preserve"><path fill="#E5E5E5" d="M0 40L80 0l128 64v2l-80 40L0 42z"/><path opacity="0.3" d="M8.9 40L80 4.5 199.1 64 128 99.5z"/><path opacity="0.39" d="M80 7V4.5L8.9 40l2.6 1.3z"/><path opacity="0.06" d="M80 7l116.5 58.3 2.6-1.3L80 4.5z"/><g><path fill="#E5E5E5" d="M128 184L0 120V40l128 64z"/><path fill="#FFF" d="M23 71.5L10 65v-8l13 6.5z"/><path fill="#FFF" d="M23 91.5L10 85v-8l13 6.5z"/><path fill="#FFF" d="M23 111.5L10 105v-8l13 6.5z"/><path fill="#FFF" d="M39 79.5L26 73v-8l13 6.5z"/><path fill="#FFF" d="M39 99.5L26 93v-8l13 6.5z"/><path fill="#FFF" d="M39 119.5L26 113v-8l13 6.5z"/><path fill="#FFF" d="M55 87.5L42 81v-8l13 6.5z"/><path fill="#FFF" d="M55 107.5L42 101v-8l13 6.5z"/><path fill="#FFF" d="M55 127.5L42 121v-8l13 6.5z"/><path fill="#FFF" d="M71 95.5L58 89v-8l13 6.5z"/><path fill="#FFF" d="M71 115.5L58 109v-8l13 6.5z"/><path fill="#FFF" d="M71 135.5L58 129v-8l13 6.5z"/><path fill="#FFF" d="M87 103.5L74 97v-8l13 6.5z"/><path fill="#FFF" d="M87 123.5L74 117v-8l13 6.5z"/><path fill="#FFF" d="M87 143.5L74 137v-8l13 6.5z"/><path fill="#FFF" d="M103 111.5L90 105v-8l13 6.5z"/><path fill="#FFF" d="M103 131.5L90 125v-8l13 6.5z"/><path fill="#FFF" d="M103 151.5L90 145v-8l13 6.5z"/><path fill="#FFF" d="M119 119.5l-13-6.5v-8l13 6.5z"/><path fill="#FFF" d="M119 139.5l-13-6.5v-8l13 6.5z"/><path fill="#FFF" d="M119 159.5l-13-6.5v-8l13 6.5z"/><path fill="#39C" d="M118 118l-5-2.5v-6l5 2.5z"/><path opacity="0.3" d="M114 115v-5l-1-.5v6l5 2.5v-1z"/><path fill="#39C" d="M112 115l-5-2.5v-6l5 2.5z"/><path opacity="0.3" d="M108 112v-5l-1-.5v6l5 2.5v-1z"/><path fill="#39C" d="M102 110l-5-2.5v-6l5 2.5z"/><path opacity="0.3" d="M98 107v-5l-1-.5v6l5 2.5v-1z"/><path fill="#39C" d="M96 107l-5-2.5v-6l5 2.5z"/><path opacity="0.3" d="M92 104v-5l-1-.5v6l5 2.5v-1z"/><path fill="#39C" d="M86 102l-5-2.5v-6l5 2.5z"/><path opacity="0.2" fill="#FFF" d="M86 102l-5-2.5v-6z"/><path opacity="0.3" d="M82 99v-5l-1-.5v6l5 2.5v-1z"/><path fill="#39C" d="M80 99l-5-2.5v-6l5 2.5z"/><path opacity="0.3" d="M76 96v-5l-1-.5v6l5 2.5v-1z"/><path fill="#39C" d="M70 94l-5-2.5v-6l5 2.5z"/><path opacity="0.3" d="M66 91v-5l-1-.5v6l5 2.5v-1z"/><path fill="#39C" d="M64 91l-5-2.5v-6l5 2.5z"/><path opacity="0.3" d="M60 88v-5l-1-.5v6l5 2.5v-1z"/><path fill="#39C" d="M54 86l-5-2.5v-6l5 2.5z"/><path opacity="0.3" d="M50 83v-5l-1-.5v6l5 2.5v-1z"/><path fill="#39C" d="M48 83l-5-2.5v-6l5 2.5z"/><path opacity="0.3" d="M44 80v-5l-1-.5v6l5 2.5v-1z"/><path fill="#39C" d="M38 78l-5-2.5v-6l5 2.5z"/><path opacity="0.3" d="M34 75v-5l-1-.5v6l5 2.5v-1z"/><path fill="#39C" d="M32 75l-5-2.5v-6l5 2.5z"/><path opacity="0.3" d="M28 72v-5l-1-.5v6l5 2.5v-1z"/><path fill="#39C" d="M22 70l-5-2.5v-6l5 2.5z"/><path opacity="0.2" fill="#FFF" d="M22 70l-5-2.5v-6z"/><path opacity="0.3" d="M18 67v-5l-1-.5v6l5 2.5v-1z"/><path fill="#39C" d="M16 67l-5-2.5v-6l5 2.5z"/><path opacity="0.3" d="M12 64v-5l-1-.5v6l5 2.5v-1z"/><path fill="#39C" d="M118 138l-5-2.5v-6l5 2.5z"/><path opacity="0.3" d="M114 135v-5l-1-.5v6l5 2.5v-1z"/><path fill="#39C" d="M112 135l-5-2.5v-6l5 2.5z"/><path opacity="0.3" d="M108 132v-5l-1-.5v6l5 2.5v-1z"/><path fill="#39C" d="M102 130l-5-2.5v-6l5 2.5z"/><path opacity="0.3" d="M98 127v-5l-1-.5v6l5 2.5v-1z"/><path fill="#39C" d="M96 127l-5-2.5v-6l5 2.5z"/><path opacity="0.3" d="M92 124v-5l-1-.5v6l5 2.5v-1z"/><path fill="#39C" d="M86 122l-5-2.5v-6l5 2.5z"/><path opacity="0.2" fill="#FFF" d="M86 122l-5-2.5v-6z"/><path opacity="0.3" d="M82 119v-5l-1-.5v6l5 2.5v-1z"/><path fill="#39C" d="M80 119l-5-2.5v-6l5 2.5z"/><path opacity="0.3" d="M76 116v-5l-1-.5v6l5 2.5v-1z"/><path fill="#39C" d="M70 114l-5-2.5v-6l5 2.5z"/><path opacity="0.3" d="M66 111v-5l-1-.5v6l5 2.5v-1z"/><path fill="#39C" d="M64 111l-5-2.5v-6l5 2.5z"/><path opacity="0.3" d="M60 108v-5l-1-.5v6l5 2.5v-1z"/><path fill="#39C" d="M54 106l-5-2.5v-6l5 2.5z"/><path opacity="0.3" d="M50 103v-5l-1-.5v6l5 2.5v-1z"/><path fill="#39C" d="M48 103l-5-2.5v-6l5 2.5z"/><path opacity="0.3" d="M44 100v-5l-1-.5v6l5 2.5v-1z"/><path fill="#39C" d="M38 98l-5-2.5v-6l5 2.5z"/><path opacity="0.3" d="M34 95v-5l-1-.5v6l5 2.5v-1z"/><path fill="#39C" d="M32 95l-5-2.5v-6l5 2.5z"/><path opacity="0.3" d="M28 92v-5l-1-.5v6l5 2.5v-1z"/><path fill="#39C" d="M22 90l-5-2.5v-6l5 2.5z"/><path opacity="0.2" fill="#FFF" d="M22 90l-5-2.5v-6z"/><path opacity="0.3" d="M18 87v-5l-1-.5v6l5 2.5v-1z"/><path fill="#39C" d="M16 87l-5-2.5v-6l5 2.5z"/><path opacity="0.3" d="M12 84v-5l-1-.5v6l5 2.5v-1z"/><path fill="#39C" d="M118 158l-5-2.5v-6l5 2.5z"/><path opacity="0.3" d="M114 155v-5l-1-.5v6l5 2.5v-1z"/><path fill="#39C" d="M112 155l-5-2.5v-6l5 2.5z"/><path opacity="0.3" d="M108 152v-5l-1-.5v6l5 2.5v-1z"/><path fill="#39C" d="M102 150l-5-2.5v-6l5 2.5z"/><path opacity="0.3" d="M98 147v-5l-1-.5v6l5 2.5v-1z"/><path fill="#39C" d="M96 147l-5-2.5v-6l5 2.5z"/><path opacity="0.3" d="M92 144v-5l-1-.5v6l5 2.5v-1z"/><path fill="#39C" d="M86 142l-5-2.5v-6l5 2.5z"/><path opacity="0.2" fill="#FFF" d="M86 142l-5-2.5v-6z"/><path opacity="0.3" d="M82 139v-5l-1-.5v6l5 2.5v-1z"/><path fill="#39C" d="M80 139l-5-2.5v-6l5 2.5z"/><path opacity="0.3" d="M76 136v-5l-1-.5v6l5 2.5v-1z"/><path fill="#39C" d="M70 134l-5-2.5v-6l5 2.5z"/><path opacity="0.3" d="M66 131v-5l-1-.5v6l5 2.5v-1z"/><path fill="#39C" d="M64 131l-5-2.5v-6l5 2.5z"/><path opacity="0.3" d="M60 128v-5l-1-.5v6l5 2.5v-1z"/><path fill="#39C" d="M54 126l-5-2.5v-6l5 2.5z"/><path opacity="0.3" d="M50 123v-5l-1-.5v6l5 2.5v-1z"/><path fill="#39C" d="M48 123l-5-2.5v-6l5 2.5z"/><path opacity="0.3" d="M44 120v-5l-1-.5v6l5 2.5v-1z"/><path fill="#39C" d="M38 118l-5-2.5v-6l5 2.5z"/><path opacity="0.3" d="M34 115v-5l-1-.5v6l5 2.5v-1z"/><path fill="#39C" d="M32 115l-5-2.5v-6l5 2.5z"/><path opacity="0.3" d="M28 112v-5l-1-.5v6l5 2.5v-1z"/><path fill="#39C" d="M22 110l-5-2.5v-6l5 2.5z"/><path opacity="0.2" fill="#FFF" d="M22 110l-5-2.5v-6z"/><path opacity="0.3" d="M18 107v-5l-1-.5v6l5 2.5v-1z"/><path fill="#39C" d="M16 107l-5-2.5v-6l5 2.5z"/><path opacity="0.3" d="M12 104v-5l-1-.5v6l5 2.5v-1z"/><path opacity="0.06" d="M128 184L0 120V40l128 64z"/></g><g><path fill="#E5E5E5" d="M128 184l80-40V64l-80 40z"/><path fill="#FFF" d="M185 95.5l13-6.5v-8l-13 6.5z"/><path fill="#FFF" d="M185 115.5l13-6.5v-8l-13 6.5z"/><path fill="#FFF" d="M185 135.5l13-6.5v-8l-13 6.5z"/><path fill="#FFF" d="M169 103.5l13-6.5v-8l-13 6.5z"/><path fill="#FFF" d="M169 123.5l13-6.5v-8l-13 6.5z"/><path fill="#FFF" d="M169 143.5l13-6.5v-8l-13 6.5z"/><path fill="#39C" d="M170 102l5-2.5v-6l-5 2.5z"/><path opacity="0.3" d="M174 99v-5l1-.5v6l-5 2.5v-1z"/><path fill="#39C" d="M176 99l5-2.5v-6l-5 2.5z"/><path opacity="0.3" d="M180 96v-5l1-.5v6l-5 2.5v-1z"/><path fill="#39C" d="M186 94l5-2.5v-6l-5 2.5z"/><path opacity="0.2" fill="#FFF" d="M186 94l5-2.5v-6z"/><path opacity="0.3" d="M190 91v-5l1-.5v6l-5 2.5v-1z"/><path fill="#39C" d="M192 91l5-2.5v-6l-5 2.5z"/><path opacity="0.3" d="M196 88v-5l1-.5v6l-5 2.5v-1z"/><path fill="#39C" d="M170 122l5-2.5v-6l-5 2.5z"/><path opacity="0.3" d="M174 119v-5l1-.5v6l-5 2.5v-1z"/><path fill="#39C" d="M176 119l5-2.5v-6l-5 2.5z"/><path opacity="0.3" d="M180 116v-5l1-.5v6l-5 2.5v-1z"/><path fill="#39C" d="M186 114l5-2.5v-6l-5 2.5z"/><path opacity="0.2" fill="#FFF" d="M186 114l5-2.5v-6z"/><path opacity="0.3" d="M190 111v-5l1-.5v6l-5 2.5v-1z"/><path fill="#39C" d="M192 111l5-2.5v-6l-5 2.5z"/><path opacity="0.3" d="M196 108v-5l1-.5v6l-5 2.5v-1z"/><path fill="#39C" d="M170 142l5-2.5v-6l-5 2.5z"/><path opacity="0.3" d="M174 139v-5l1-.5v6l-5 2.5v-1z"/><path fill="#39C" d="M176 139l5-2.5v-6l-5 2.5z"/><path opacity="0.3" d="M180 136v-5l1-.5v6l-5 2.5v-1z"/><path fill="#39C" d="M186 134l5-2.5v-6l-5 2.5z"/><path opacity="0.2" fill="#FFF" d="M186 134l5-2.5v-6z"/><path opacity="0.3" d="M190 131v-5l1-.5v6l-5 2.5v-1z"/><path fill="#39C" d="M192 131l5-2.5v-6l-5 2.5z"/><path opacity="0.3" d="M196 128v-5l1-.5v6l-5 2.5v-1z"/><path opacity="0.39" d="M128 184l80-40V64l-80 40z"/></g><g><path fill="#E5E5E5" d="M146 40l-16 8v3l32 16 16-8v-3z"/><path fill="#E5E5E5" d="M178 64l-16 8v-8l16-8z"/><path opacity="0.39" d="M178 64l-16 8v-8l16-8z"/><path fill="#E5E5E5" d="M162 72l-32-16v-8l32 16z"/><path opacity="0.06" d="M162 72l-32-16v-8l32 16z"/><path fill="#E5E5E5" d="M145 0c-4.4 0-8 1.8-8 4v44c0 2.2 3.6 4 8 4s8-1.8 8-4V4c0-2.2-3.6-4-8-4z"/><path opacity="0.2" d="M145 8c-4.4 0-8-1.8-8-4v44c0 2.2 3.6 4 8 4s8-1.8 8-4V4c0 2.2-3.6 4-8 4z"/><ellipse opacity="0.4" cx="145" cy="4" rx="6" ry="2.5"/><g><path fill="#E5E5E5" d="M163 8c-4.4 0-8 1.8-8 4v44c0 2.2 3.6 4 8 4s8-1.8 8-4V12c0-2.2-3.6-4-8-4z"/><path opacity="0.2" d="M163 16c-4.4 0-8-1.8-8-4v44c0 2.2 3.6 4 8 4s8-1.8 8-4V12c0 2.2-3.6 4-8 4z"/><ellipse opacity="0.4" cx="163" cy="12" rx="6" ry="2.5"/></g></g><metadata><rdf:RDF xmlns:rdf="http://www.w3.org/1999/02/22-rdf-syntax-ns#" xmlns:rdfs="http://www.w3.org/2000/01/rdf-schema#" xmlns:dc="http://purl.org/dc/elements/1.1/"><rdf:Description about="https://iconscout.com/legal#licenses" dc:title="factory" dc:description="factory" dc:publisher="Iconscout" dc:date="2017-09-20" dc:format="image/svg+xml" dc:language="en"><dc:creator><rdf:Bag><rdf:li>Icograms</rdf:li></rdf:Bag></dc:creator></rdf:Description></rdf:RDF></metadata></svg>