<?xml version="1.0" encoding="UTF-8"?><svg xmlns="http://www.w3.org/2000/svg" xmlns:xlink="http://www.w3.org/1999/xlink" version="1.1" id="Layer_1" x="0px" y="0px" viewBox="0 0 96 80" xml:space="preserve"><path fill="#F8EBCB" d="M64 52l16-24 16 8v20L64 72z"/><path fill="#FFF" d="M64 72l2-1V49l-2 3z"/><path fill="#FFF" d="M86 56l-12 6V49l12-6z"/><path fill="#825012" d="M85 55.5l-10 5v-11l10-5z"/><path fill="#39C" d="M76 59l8-4v-9l-8 4z"/><path opacity="0.15" d="M84 53v-7l-8 4z"/><path fill="#825012" d="M76 53l8-4v1l-8 4z"/><path opacity="0.15" d="M84 47l-8 4v-1l8-4z"/><path fill="#825012" d="M78 48l1-.5v10l-1 .5z"/><path fill="#825012" d="M81 46.5l1-.5v10l-1 .5z"/><path opacity="0.3" d="M84 55V45l1-.5v11l-10 5v-1z"/><path fill="#F8EBCB" d="M16 28l48 24v20L16 48z"/><path fill="#FFF" d="M16 48l2 1V29l-2-1z"/><path fill="#FFF" d="M62 71l2 1V52l-2-1z"/><path opacity="0.3" d="M62 71L18 49v-1l44 22z"/><path fill="#FFF" d="M31 50.5L22 46V33l9 4.5z"/><path fill="#825012" d="M30 49l-7-3.5v-11l7 3.5z"/><path fill="#39C" d="M24 45l5 2.5v-9L24 36z"/><path opacity="0.15" d="M29 45.5v-7L24 36z"/><path fill="#825012" d="M24 39l5 2.5v1L24 40z"/><path opacity="0.15" d="M29 39.5L24 37v-1l5 2.5z"/><path fill="#825012" d="M26 36l1 .5v10l-1-.5z"/><path opacity="0.3" d="M24 45V35l-1-.5v11l7 3.5v-1z"/><path fill="#FFF" d="M58 64l-9-4.5v-13l9 4.5z"/><path fill="#825012" d="M57 62.5L50 59V48l7 3.5z"/><path fill="#39C" d="M51 58.5l5 2.5v-9l-5-2.5z"/><path opacity="0.15" d="M56 59v-7l-5-2.5z"/><path fill="#825012" d="M51 52.5l5 2.5v1l-5-2.5z"/><path opacity="0.15" d="M56 53l-5-2.5v-1l5 2.5z"/><path fill="#825012" d="M53 49.5l1 .5v10l-1-.5z"/><path opacity="0.3" d="M51 58.5v-10l-1-.5v11l7 3.5v-1z"/><path fill="#FFF" d="M45 44.5l-10-5v17l10 5z"/><path fill="#825012" d="M44 61l-8-4V41l8 4z"/><path opacity="0.3" d="M37 56.5v-15l-1-.5v16l8 4v-1z"/><path opacity="0.3" d="M40 47l-2-1v-1l2 1z"/><path opacity="0.3" d="M43 48.5l-2-1v-1l2 1z"/><path opacity="0.3" d="M40 51l-2-1v-1l2 1z"/><path opacity="0.3" d="M43 52.5l-2-1v-1l2 1z"/><path opacity="0.3" d="M40 55l-2-1v-1l2 1z"/><path opacity="0.3" d="M43 56.5l-2-1v-1l2 1z"/><path opacity="0.06" d="M16 28l48 24v20L16 48z"/><path fill="#762C07" d="M64 52L16 28 32 4l48 24z"/><path opacity="0.06" d="M64 52L16 28 32 4l48 24z"/><path opacity="0.2" fill="#FFF" d="M30.9 5.6l48 24L80 28 32 4z"/><g><path fill="#656565" d="M48 63l-16-8-8 4v1l16 8 8-4z"/><path fill="#2D3134" d="M44 61l-8-4-4 2 8 4z"/><path opacity="0.39" d="M48 63v1l-8 4v-1z"/><path opacity="0.06" d="M24 59v1l16 8v-1z"/></g><g><path fill="#FFF" d="M30 59.5l-1-.5V39l1 .5z"/><path opacity="0.06" d="M30 59.5l-1-.5V39l1 .5z"/><path fill="#FFF" d="M30 39.5l1-.5v20l-1 .5z"/><path opacity="0.39" d="M30 39.5l1-.5v20l-1 .5z"/></g><g><path fill="#FFF" d="M39 64l-1-.5v-21l1 .5z"/><path opacity="0.06" d="M39 64l-1-.5v-21l1 .5z"/><path fill="#FFF" d="M39 43l1-.5v21l-1 .5z"/><path opacity="0.39" d="M39 43l1-.5v21l-1 .5z"/></g><g><path fill="#F8EBCB" d="M23 39l18 9-9-16z"/><path fill="#FFF" d="M27.7 39.7l3.9-3.3 3.8 7.1z"/><path fill="#762C07" d="M32 33l8.3 14.6.7.4-9-16-9 7 .7.4z"/><path fill="#762C07" d="M32 32l9 16 7.6-4.3L50 23z"/><path opacity="0.39" d="M32 32l9 16 7.6-4.3L50 23z"/><path opacity="0.2" fill="#FFF" d="M49.6 24.2L50 23l-18 9 .4.8z"/><path opacity="0.3" d="M28.7 39.7l3.2-2.8-.3-.5-3.9 3.3 7.7 3.8-.3-.6z"/><path opacity="0.06" d="M23 39l18 9-9-16z"/></g><path fill="#FFF" d="M94 57l2-1V36l-2-1z"/><path opacity="0.3" d="M94 57L66 71v-1l28-14z"/><path fill="#762C07" d="M64 52l16-24 16 8h-1l-15-7-15 23z"/><path opacity="0.39" d="M64 52l16-24 16 8v20L64 72z"/><metadata><rdf:RDF xmlns:rdf="http://www.w3.org/1999/02/22-rdf-syntax-ns#" xmlns:rdfs="http://www.w3.org/2000/01/rdf-schema#" xmlns:dc="http://purl.org/dc/elements/1.1/"><rdf:Description about="https://iconscout.com/legal#licenses" dc:title="house,small,front" dc:description="house,small,front" dc:publisher="Iconscout" dc:date="2017-09-20" dc:format="image/svg+xml" dc:language="en"><dc:creator><rdf:Bag><rdf:li>Icograms</rdf:li></rdf:Bag></dc:creator></rdf:Description></rdf:RDF></metadata></svg>