<?xml version="1.0" encoding="UTF-8"?><svg xmlns="http://www.w3.org/2000/svg" xmlns:xlink="http://www.w3.org/1999/xlink" version="1.1" id="Layer_1" x="0px" y="0px" viewBox="0 0 128 96" xml:space="preserve"><path fill="#999" d="M64 96L0 64l64-32 64 32z"/><path fill="#E5E5E5" d="M64 0L0 32v6l2 1v24l62 31 62-31V39l2-1v-6z"/><path opacity="0.15" d="M64 70.7L2 39.8V39l62 31z"/><path fill="#CC291F" d="M64 70L0 38v-6l64 32z"/><path fill="#39C" d="M22 67.5L5 59V46l17 8.5z"/><path opacity="0.15" d="M22 57.5L5 49v-3l17 8.5z"/><path opacity="0.15" d="M22 56.5L5 48v-2l17 8.5z"/><path opacity="0.15" d="M22 55.5L5 47v-1l17 8.5z"/><path fill="#39C" d="M41 82.5L26 75V56.5L41 64z"/><path opacity="0.15" d="M41 82.5l-15-26L41 64z"/><path opacity="0.2" fill="#FFF" d="M41 82.5L26 75v-5.7z"/><path opacity="0.15" d="M41 67l-15-7.5v-3L41 64z"/><path opacity="0.15" d="M41 66l-15-7.5v-2L41 64z"/><path opacity="0.15" d="M41 65l-15-7.5v-1L41 64z"/><path opacity="0.7" fill="#FFF" d="M14 63.5l-1-.5V50l1 .5z"/><path fill="#39C" d="M62 87.5L45 79V66l17 8.5z"/><path opacity="0.15" d="M62 77.5L45 69v-3l17 8.5z"/><path opacity="0.15" d="M62 76.5L45 68v-2l17 8.5z"/><path opacity="0.15" d="M62 75.5L45 67v-1l17 8.5z"/><path opacity="0.7" fill="#FFF" d="M54 83.5l-1-.5V70l1 .5z"/><path opacity="0.7" fill="#FFF" d="M34 79l-1-.5V60l1 .5z"/><path fill="#CC291F" d="M23 48v25.5l2 1V55l17 8.5V83l2 1V58.5z"/><path fill="#FC0" d="M26 54.5l-1-.5v-4l1 .5z"/><path fill="#FC0" d="M28 55.5l-1-.5v-4l1 .5z"/><path fill="#FC0" d="M30 56.5l-1-.5v-4l1 .5z"/><path fill="#FC0" d="M32 57.5l-1-.5v-4l1 .5z"/><path fill="#FC0" d="M34 58.5l-1-.5v-4l1 .5z"/><path fill="#FC0" d="M36 59.5l-1-.5v-4l1 .5z"/><path fill="#FC0" d="M38 60.5l-1-.5v-4l1 .5z"/><path opacity="0.2" fill="#FFF" d="M22 67.5L5 59v-7z"/><path fill="#FC0" d="M40 61.5l-1-.5v-4l1 .5z"/><path opacity="0.2" fill="#FFF" d="M62 87.5L45 79v-6.7z"/><path fill="#FC0" d="M42 62.5l-1-.5v-4l1 .5z"/><path opacity="0.06" d="M64 94L2 63V39l-2-1v-6l64 32z"/><g><path opacity="0.15" d="M126 39.8L64 70.7V70l62-31z"/><path fill="#CC291F" d="M128 38L64 70v-6l64-32z"/><path fill="#39C" d="M83 79l-17 8.5v-13L83 66z"/><path opacity="0.15" d="M83 69l-17 8.5v-3L83 66z"/><path opacity="0.15" d="M83 68l-17 8.5v-2L83 66z"/><path opacity="0.15" d="M83 67l-17 8.5v-1L83 66z"/><path opacity="0.7" fill="#FFF" d="M75 83l-1 .5v-13l1-.5z"/><path fill="#39C" d="M123 59l-17 8.5v-13l17-8.5z"/><path opacity="0.15" d="M123 49l-17 8.5v-3l17-8.5z"/><path opacity="0.15" d="M123 58.7l-17-4.2 17-8.5z"/><path opacity="0.15" d="M123 48l-17 8.5v-2l17-8.5z"/><path opacity="0.15" d="M123 47l-17 8.5v-1l17-8.5z"/><path opacity="0.7" fill="#FFF" d="M115 63l-1 .5v-13l1-.5z"/><path fill="#39C" d="M103 69l-17 8.5v-13l17-8.5z"/><path opacity="0.15" d="M83 71.8l-17 2.7L83 66z"/><path opacity="0.15" d="M103 64.8l-17-.3 17-8.5z"/><path opacity="0.15" d="M103 59l-17 8.5v-3l17-8.5z"/><path opacity="0.15" d="M103 58l-17 8.5v-2l17-8.5z"/><path opacity="0.15" d="M103 57l-17 8.5v-1l17-8.5z"/><path opacity="0.7" fill="#FFF" d="M95 73l-1 .5v-13l1-.5z"/><path opacity="0.39" d="M126 63L64 94V64l64-32v6l-2 1z"/></g><path opacity="0.4" d="M8.9 32L64 4.5 119.1 32 64 59.5z"/><path opacity="0.39" d="M64 6.5v-2L8.9 32l2 1z"/><path opacity="0.06" d="M64 6.5L117.1 33l2-1L64 4.5z"/><g><path fill="#999" d="M66 9L42 21v2l12 6 24-12v-2z"/><path opacity="0.39" d="M78 17L54 29v-2l24-12z"/><path opacity="0.06" d="M42 23l12 6v-2l-12-6z"/><path fill="#656565" d="M65 13c-2.8 0-5 1.1-5 2.5s2.2 2.5 5 2.5 5-1.1 5-2.5-2.2-2.5-5-2.5zm0 4c-1.7 0-3-.7-3-1.5s1.3-1.5 3-1.5 3 .7 3 1.5-1.3 1.5-3 1.5z"/><path fill="#656565" d="M55 18c-2.8 0-5 1.1-5 2.5s2.2 2.5 5 2.5 5-1.1 5-2.5-2.2-2.5-5-2.5zm0 4c-1.7 0-3-.7-3-1.5s1.3-1.5 3-1.5 3 .7 3 1.5-1.3 1.5-3 1.5z"/></g><g><path fill="#999" d="M84 18L60 30v2l12 6 24-12v-2z"/><path opacity="0.39" d="M96 26L72 38v-2l24-12z"/><path opacity="0.06" d="M60 32l12 6v-2l-12-6z"/><path fill="#656565" d="M83 22c-2.8 0-5 1.1-5 2.5s2.2 2.5 5 2.5 5-1.1 5-2.5-2.2-2.5-5-2.5zm0 4c-1.7 0-3-.7-3-1.5s1.3-1.5 3-1.5 3 .7 3 1.5-1.3 1.5-3 1.5z"/><path fill="#656565" d="M73 27c-2.8 0-5 1.1-5 2.5s2.2 2.5 5 2.5 5-1.1 5-2.5-2.2-2.5-5-2.5zm0 4c-1.7 0-3-.7-3-1.5s1.3-1.5 3-1.5 3 .7 3 1.5-1.3 1.5-3 1.5z"/></g><metadata><rdf:RDF xmlns:rdf="http://www.w3.org/1999/02/22-rdf-syntax-ns#" xmlns:rdfs="http://www.w3.org/2000/01/rdf-schema#" xmlns:dc="http://purl.org/dc/elements/1.1/"><rdf:Description about="https://iconscout.com/legal#licenses" dc:title="market" dc:description="market" dc:publisher="Iconscout" dc:date="2017-09-20" dc:format="image/svg+xml" dc:language="en"><dc:creator><rdf:Bag><rdf:li>Icograms</rdf:li></rdf:Bag></dc:creator></rdf:Description></rdf:RDF></metadata></svg>