<?xml version="1.0" standalone="no"?>
<!DOCTYPE svg PUBLIC "-//W3C//DTD SVG 20010904//EN"
 "http://www.w3.org/TR/2001/REC-SVG-20010904/DTD/svg10.dtd">
<svg version="1.0" xmlns="http://www.w3.org/2000/svg"
 width="2275.000000pt" height="2275.000000pt" viewBox="0 0 2275.000000 2275.000000"
 preserveAspectRatio="xMidYMid meet">
<metadata>
Created by potrace 1.11, written by Peter Selinger 2001-2013
</metadata>
<g transform="translate(0.000000,2275.000000) scale(0.100000,-0.100000)"
fill="#000000" stroke="none">
<path d="M12057 21753 c-79 -141 -659 -1127 -678 -1155 -10 -15 -19 -29 -19
-32 0 -3 -25 -46 -55 -97 -30 -50 -55 -93 -55 -94 0 -2 -18 -32 -39 -66 -22
-35 -52 -86 -67 -114 -14 -27 -32 -57 -40 -66 -8 -8 -14 -18 -14 -22 0 -3 -40
-72 -88 -154 -48 -81 -91 -155 -95 -163 -4 -8 -25 -44 -47 -79 -22 -34 -40
-64 -40 -66 0 -2 -21 -39 -46 -82 -39 -65 -173 -293 -233 -395 -9 -15 -76
-130 -150 -255 -74 -126 -170 -289 -213 -363 -95 -161 -85 -145 -148 -248 -27
-46 -50 -86 -50 -88 0 -3 -26 -48 -58 -102 -53 -88 -380 -643 -422 -717 -10
-16 -61 -104 -115 -195 -54 -91 -107 -181 -118 -200 -10 -19 -63 -109 -117
-200 -53 -91 -128 -217 -165 -280 -37 -63 -76 -128 -85 -145 -16 -27 -224
-382 -340 -580 -26 -44 -100 -170 -164 -280 -65 -110 -123 -209 -129 -220 -7
-10 -22 -37 -35 -58 -13 -21 -31 -53 -41 -70 -10 -18 -109 -187 -221 -377
-111 -190 -241 -410 -288 -490 -47 -80 -92 -156 -100 -170 -9 -14 -30 -50 -47
-80 -17 -30 -71 -122 -120 -205 -48 -82 -117 -199 -153 -260 -36 -60 -73 -123
-82 -140 -27 -47 -207 -352 -320 -545 -57 -96 -108 -184 -114 -195 -6 -11 -51
-87 -100 -170 -49 -82 -119 -202 -156 -265 -37 -63 -166 -281 -285 -485 -120
-203 -239 -406 -265 -450 -25 -44 -102 -174 -170 -290 -269 -458 -291 -498
-268 -483 13 8 138 84 278 168 140 85 369 223 508 307 140 84 256 153 259 153
3 0 19 10 36 23 18 12 41 27 52 33 11 6 139 83 285 171 785 475 1590 960 1638
988 10 6 134 81 277 167 143 86 265 158 271 160 6 2 89 -94 183 -212 95 -118
178 -222 186 -231 7 -10 37 -48 66 -85 29 -38 67 -85 84 -105 16 -19 44 -53
60 -74 17 -21 44 -56 60 -76 17 -20 51 -63 76 -96 59 -75 566 -712 588 -738 9
-11 50 -63 91 -115 41 -52 82 -104 92 -115 9 -11 145 -182 302 -380 158 -198
317 -398 354 -444 37 -47 121 -153 187 -236 66 -83 134 -169 152 -191 26 -31
273 -342 432 -542 14 -18 31 -39 36 -45 6 -7 71 -88 145 -182 74 -93 137 -172
140 -175 3 -3 19 -23 36 -45 16 -22 36 -49 46 -60 9 -11 41 -51 72 -90 31 -38
60 -75 66 -82 28 -34 339 -425 360 -453 14 -19 41 -53 60 -76 19 -23 85 -104
145 -180 61 -77 115 -144 120 -151 6 -7 15 -18 20 -25 33 -42 481 -605 490
-615 5 -7 15 -18 20 -25 62 -80 241 -304 245 -308 3 -3 39 -47 80 -99 40 -52
79 -102 86 -110 7 -9 54 -68 104 -131 51 -63 104 -131 120 -150 15 -19 69 -87
119 -150 85 -108 121 -152 283 -354 34 -44 119 -150 188 -237 280 -353 770
-967 792 -994 9 -11 124 -155 254 -320 131 -165 249 -314 263 -331 14 -16 37
-45 51 -63 14 -19 32 -42 40 -51 8 -10 29 -35 45 -56 60 -76 166 -209 178
-224 7 -8 181 -226 386 -485 312 -392 479 -602 554 -695 53 -67 404 -507 409
-515 11 -14 76 -96 96 -120 10 -11 42 -52 72 -90 30 -38 60 -77 67 -85 7 -8
80 -100 163 -205 84 -104 155 -191 158 -192 6 -3 24 25 87 136 25 44 168 286
287 484 48 82 88 150 88 152 0 2 22 40 50 84 27 44 50 83 50 85 0 3 13 25 30
49 16 25 30 48 30 51 0 4 11 23 24 44 13 20 89 147 168 282 80 135 197 333
260 440 151 255 148 249 187 317 34 59 271 459 389 658 36 60 73 123 82 140 9
16 125 212 257 435 231 390 296 500 333 565 42 74 185 314 206 347 13 21 24
42 24 48 0 5 5 10 10 10 6 0 10 4 10 9 0 5 50 94 111 197 62 104 120 203 129
219 9 17 44 75 77 130 33 55 76 127 95 160 19 33 72 123 118 200 46 77 104
176 130 220 26 44 91 154 145 245 94 159 113 192 154 263 10 17 43 73 73 122
30 50 66 111 80 135 14 25 61 106 105 180 44 74 126 214 183 310 56 96 111
187 121 202 11 15 19 30 19 33 0 3 12 24 27 48 14 23 39 63 54 89 l28 47 -49
63 c-28 35 -199 257 -382 493 -182 237 -352 457 -378 490 -26 33 -138 179
-251 323 -112 145 -213 276 -224 291 -20 27 -209 272 -232 301 -28 35 -217
280 -260 338 -27 35 -53 69 -58 75 -6 7 -26 32 -45 57 -19 25 -40 52 -47 60
-26 33 -163 211 -243 315 -46 61 -86 112 -89 115 -3 3 -33 41 -66 85 -33 44
-66 87 -72 95 -7 8 -56 71 -109 140 -52 69 -106 138 -119 155 -13 16 -95 122
-182 235 -87 113 -181 234 -209 270 -27 36 -104 135 -169 220 -66 85 -122 157
-125 160 -3 3 -32 41 -65 84 -33 43 -64 84 -70 90 -6 6 -22 27 -35 46 -13 19
-27 37 -30 40 -3 3 -27 34 -55 70 -27 36 -52 67 -55 70 -3 3 -48 61 -100 130
-52 69 -98 130 -102 135 -67 85 -176 225 -318 410 -96 125 -195 253 -220 285
-25 31 -70 90 -100 129 -30 40 -63 82 -72 94 -10 12 -21 27 -26 32 -4 6 -39
51 -77 100 -38 50 -101 131 -140 181 -38 50 -81 106 -95 124 -23 29 -419 542
-475 615 -13 17 -83 107 -155 200 -72 94 -142 184 -155 200 -12 17 -89 116
-169 220 -81 105 -152 197 -159 205 -11 14 -125 162 -213 276 -73 95 -269 349
-281 364 -34 42 -204 263 -243 315 -25 33 -47 62 -50 65 -3 3 -28 34 -55 70
-27 36 -52 67 -55 70 -3 3 -33 41 -66 85 -32 44 -66 89 -76 100 -15 18 -464
599 -753 975 -65 85 -123 160 -127 165 -5 6 -54 69 -109 140 -55 72 -106 137
-112 145 -7 8 -41 53 -77 100 -35 47 -69 90 -75 97 -14 17 -19 24 -107 138
-43 55 -126 163 -185 240 -60 77 -117 152 -128 166 -11 15 -56 73 -100 130
-93 119 -557 719 -904 1169 -130 168 -241 312 -248 320 -7 8 -26 33 -42 55
-16 22 -60 78 -96 125 -36 47 -92 119 -123 160 -31 41 -64 84 -74 95 -18 21
-191 244 -292 378 -33 43 -63 80 -67 83 -4 2 -27 -31 -52 -73z"/>
<path d="M3859 7827 c-16 -29 -34 -59 -39 -67 -6 -8 -31 -51 -56 -95 -26 -44
-130 -222 -232 -395 -102 -173 -192 -328 -202 -345 -15 -28 -411 -703 -640
-1095 -53 -91 -184 -313 -290 -495 -239 -407 -415 -709 -595 -1015 -76 -129
-145 -248 -155 -265 -10 -16 -111 -190 -225 -385 -115 -195 -222 -380 -240
-410 -114 -196 -205 -351 -228 -387 -15 -24 -27 -45 -27 -48 0 -2 -18 -34 -40
-69 -33 -55 -140 -236 -200 -341 -93 -161 -207 -357 -225 -385 -12 -19 -57
-96 -100 -170 -43 -74 -85 -146 -95 -160 -9 -14 -19 -32 -23 -40 -3 -8 -59
-105 -125 -215 -65 -110 -115 -201 -111 -203 4 -2 24 7 45 19 66 37 1018 558
1154 632 41 22 80 43 85 47 6 4 60 33 120 65 61 32 122 66 137 77 14 10 29 18
32 18 3 0 91 47 195 104 104 58 229 126 278 152 48 26 96 54 106 62 9 8 17 12
17 9 0 -3 47 21 105 54 57 32 107 59 111 59 3 0 18 8 32 18 15 11 70 42 122
69 52 28 124 68 160 88 36 20 74 41 85 46 11 5 27 13 35 19 17 10 134 75 255
140 44 24 193 105 330 180 138 76 322 177 410 225 88 48 185 101 215 118 132
71 208 113 255 139 28 16 84 46 125 68 41 22 82 44 90 49 8 6 85 48 170 94 85
47 217 119 294 161 76 42 140 76 142 76 3 0 21 10 42 23 20 13 82 48 137 77
55 29 114 60 130 70 17 10 57 32 90 50 225 122 414 225 435 239 14 8 28 15 32
14 3 -2 12 4 18 12 7 8 16 15 21 15 4 0 92 47 196 103 103 57 220 121 258 142
39 20 88 48 110 60 22 13 65 36 95 52 30 17 127 70 215 118 88 48 185 101 215
118 30 16 75 41 100 55 93 51 157 86 215 118 33 17 80 43 105 56 25 14 77 42
115 63 39 21 75 41 80 45 6 4 48 28 95 53 83 43 130 69 235 127 28 15 75 41
105 58 30 16 127 69 215 117 88 48 183 100 210 115 28 15 115 63 195 107 80
44 181 99 225 123 44 24 114 62 155 85 41 23 111 61 155 85 44 23 94 50 110
60 17 10 59 33 95 52 36 20 85 47 110 60 25 14 101 56 170 93 69 38 143 78
165 90 22 12 121 67 220 120 99 54 194 107 210 117 17 10 37 21 45 25 8 4 173
93 365 198 193 106 382 209 420 230 39 21 133 73 210 115 77 43 172 94 210
115 308 166 290 150 158 151 -117 2 -771 12 -1213 19 -151 3 -444 7 -650 10
-377 6 -652 10 -1290 20 -190 3 -496 7 -680 10 -184 3 -481 7 -660 10 -179 3
-467 7 -640 10 -289 4 -541 8 -1300 20 -151 2 -450 7 -665 10 -214 3 -486 8
-603 10 l-213 3 -30 -51z"/>
</g>
</svg>
